<svg width="24" height="24" viewBox="0 0 24 24" fill="none" xmlns="http://www.w3.org/2000/svg">
<path d="M10.53 15.4698C10.6036 15.5385 10.6627 15.6213 10.7037 15.7133C10.7447 15.8053 10.7668 15.9046 10.7685 16.0053C10.7703 16.106 10.7518 16.2061 10.7141 16.2994C10.6764 16.3928 10.6202 16.4777 10.549 16.5489C10.4778 16.6201 10.3929 16.6762 10.2995 16.714C10.2062 16.7517 10.1061 16.7702 10.0054 16.7684C9.90473 16.7667 9.80541 16.7446 9.71341 16.7036C9.62141 16.6626 9.53861 16.6035 9.46995 16.5298L5.46995 12.5298C5.3295 12.3892 5.25061 12.1986 5.25061 11.9998C5.25061 11.8011 5.3295 11.6105 5.46995 11.4698L9.46995 7.46985C9.53861 7.39616 9.62141 7.33706 9.71341 7.29607C9.80541 7.25507 9.90473 7.23303 10.0054 7.23126C10.1061 7.22948 10.2062 7.248 10.2995 7.28572C10.3929 7.32344 10.4778 7.37959 10.549 7.45081C10.6202 7.52203 10.6764 7.60686 10.7141 7.70025C10.7518 7.79364 10.7703 7.89367 10.7685 7.99437C10.7668 8.09507 10.7447 8.19439 10.7037 8.28638C10.6627 8.37838 10.6036 8.46118 10.53 8.52985L7.80995 11.2498H17.5C17.6989 11.2498 17.8896 11.3289 18.0303 11.4695C18.1709 11.6102 18.25 11.8009 18.25 11.9998C18.25 12.1988 18.1709 12.3895 18.0303 12.5302C17.8896 12.6708 17.6989 12.7498 17.5 12.7498H7.80995L10.53 15.4698Z" fill="#727A8E"/>
</svg>
